<?xml version="1.0" encoding="utf-8"?>
<!-- Generator: Adobe Illustrator 24.3.0, SVG Export Plug-In . SVG Version: 6.00 Build 0)  -->
<svg xmlns="http://www.w3.org/2000/svg" xmlns:xlink="http://www.w3.org/1999/xlink" version="1.1" id="Layer_1" x="0px" y="0px" viewBox="0 0 512 512" enable-background="new 0 0 512 512" xml:space="preserve" width="48" height="48">
<path d="M384,0H128C86.8,0,53.3,33.5,53.3,74.7v362.7c0,41.2,33.5,74.7,74.7,74.7h256c41.2,0,74.7-33.5,74.7-74.7V74.7  C458.7,33.5,425.2,0,384,0z M181.3,458.7c0,5.9-4.8,10.7-10.7,10.7H128c-5.9,0-10.7-4.8-10.7-10.7V416c0-5.9,4.8-10.7,10.7-10.7  h42.7c5.9,0,10.7,4.8,10.7,10.7v42.7H181.3z M181.3,352c0,5.9-4.8,10.7-10.7,10.7H128c-5.9,0-10.7-4.8-10.7-10.7v-42.7  c0-5.9,4.8-10.7,10.7-10.7h42.7c5.9,0,10.7,4.8,10.7,10.7V352H181.3z M181.3,245.3c0,5.9-4.8,10.7-10.7,10.7H128  c-5.9,0-10.7-4.8-10.7-10.7v-42.7c0-5.9,4.8-10.7,10.7-10.7h42.7c5.9,0,10.7,4.8,10.7,10.7v42.7H181.3z M288,458.7  c0,5.9-4.8,10.7-10.7,10.7h-42.7c-5.9,0-10.7-4.8-10.7-10.7V416c0-5.9,4.8-10.7,10.7-10.7h42.7c5.9,0,10.7,4.8,10.7,10.7V458.7z   M288,352c0,5.9-4.8,10.7-10.7,10.7h-42.7c-5.9,0-10.7-4.8-10.7-10.7v-42.7c0-5.9,4.8-10.7,10.7-10.7h42.7c5.9,0,10.7,4.8,10.7,10.7  V352z M288,245.3c0,5.9-4.8,10.7-10.7,10.7h-42.7c-5.9,0-10.7-4.8-10.7-10.7v-42.7c0-5.9,4.8-10.7,10.7-10.7h42.7  c5.9,0,10.7,4.8,10.7,10.7V245.3z M394.7,458.7c0,5.9-4.8,10.7-10.7,10.7h-42.7c-5.9,0-10.7-4.8-10.7-10.7V309.3  c0-5.9,4.8-10.7,10.7-10.7H384c5.9,0,10.7,4.8,10.7,10.7V458.7z M394.7,245.3c0,5.9-4.8,10.7-10.7,10.7h-42.7  c-5.9,0-10.7-4.8-10.7-10.7v-42.7c0-5.9,4.8-10.7,10.7-10.7H384c5.9,0,10.7,4.8,10.7,10.7V245.3z M394.7,117.3c0,17.6-14.4,32-32,32  H149.3c-17.6,0-32-14.4-32-32V74.7c0-17.6,14.4-32,32-32h213.3c17.6,0,32,14.4,32,32v42.6H394.7z"/>
<desc>
	Calculatrice; Calculatrice; comptage; comptage; abaque; boulier; maths; maths; montre; garde-temps; chronomètre; chronomètre; chiffre; chiffre; dénombrement; énumération; ratio; ratio; exposant; exposant; mécanique; mécanique; mathématiques; mathématiques; numération; numération; cotes; cotes; géométrique; géométrique; numérique; numérique; auditeur; auditeur; montre-bracelet; montre-bracelet; arithmétique; arithmétique; comptable; comptable; calcul; calcul; pi; pi; numéroter; numéroter; continuum; continuum; équilatéral; équilatéral; diviseur; diviseur; tally; tally; algébrique; algébrique; géomètre; géomètre; thêta; theta;Calculatrice;Calculator;comptage;counting;abaque;abacus;maths;math;montre;timepiece;chronomètre;chronometer;chiffre;numeral;chiffre;digit;dénombrement;enumeration;ratio;ratio;exposant;exponent;mécanique;mechanical;mathématiques;mathematics;numération;numeration;cotes;odds;géométrique;geometric;numérique;numerical;auditeur;auditor;montre-bracelet;wristwatch;arithmétique;arithmetic;comptable;accountant;calcul;calculus;pi;pi;numerate;numerate;continuum;continuum;équilatéral;equilateral;diviseur;divisor;tally;tally;algébrique;algebraic;géomètre;geometer;thêta;theta;École;School
	</desc>
<rect fill-opacity="0" width="512" height="512"/>
</svg>
