<?xml version="1.0" encoding="utf-8"?>
<!-- Generator: Adobe Illustrator 24.3.0, SVG Export Plug-In . SVG Version: 6.00 Build 0)  -->
<svg xmlns="http://www.w3.org/2000/svg" xmlns:xlink="http://www.w3.org/1999/xlink" version="1.1" id="Calque_1" x="0px" y="0px" viewBox="0 0 512 512" enable-background="new 0 0 512 512" xml:space="preserve" width="80" height="80">
<g id="Credit_Card">
</g>
<g id="Banknote">
</g>
<g id="Wallet">
</g>
<g id="Compass">
</g>
<g>
	<path d="M437.3,117.3h-64c-4.6,0-8.7-2.9-10.1-7.3l-6.7-20.2c-7.3-21.8-27.6-36.5-50.6-36.5h-99.8c-23,0-43.3,14.7-50.6,36.5   l-6.7,20.2c-1.5,4.4-5.5,7.3-10.1,7.3h-64C33.5,117.3,0,150.8,0,192v192c0,41.2,33.5,74.7,74.7,74.7h362.7   c41.2,0,74.7-33.5,74.7-74.7V192C512,150.8,478.5,117.3,437.3,117.3z M490.7,384c0,29.4-23.9,53.3-53.3,53.3H74.7   c-29.4,0-53.3-23.9-53.3-53.3V192c0-29.4,23.9-53.3,53.3-53.3h64c13.8,0,26-8.8,30.4-21.9l6.8-20.3c4.4-13.1,16.6-21.9,30.3-21.9   H306c13.8,0,26,8.8,30.4,21.9l6.7,20.2c4.4,13.1,16.6,21.9,30.4,21.9h64c29.4,0,53.3,23.9,53.3,53.3V384H490.7z"/>
	<path d="M256,160c-70.6,0-128,57.4-128,128s57.4,128,128,128s128-57.4,128-128S326.6,160,256,160z M256,394.7   c-58.8,0-106.7-47.9-106.7-106.7S197.2,181.3,256,181.3S362.7,229.2,362.7,288S314.8,394.7,256,394.7z"/>
	<path d="M256,202.7c-47.1,0-85.3,38.3-85.3,85.3c0,5.9,4.8,10.7,10.7,10.7s10.7-4.8,10.7-10.7c0-35.3,28.7-64,64-64   c5.9,0,10.7-4.8,10.7-10.7C266.7,207.4,261.9,202.7,256,202.7z"/>
</g>
<g id="Photo">
</g>
<g id="Picture">
</g>
<g id="Camera_2">
</g>
<g id="No_Camera">
</g>
<g id="Video">
</g>
<g id="Audio">
</g>
<g id="Microphone_1">
</g>
<g id="Microphone_2">
</g>
<g id="No_Microphone">
</g>
<g id="Shopping_Cart">
</g>
<g id="Add_Shopping_Cart">
</g>
<g id="Remove_Shopping_Cart">
</g>
<g id="Shopping_Basket">
</g>
<g id="Jing-Jang">
</g>
<g id="Leaf">
</g>
<g id="Glass">
</g>
<g id="Cup">
</g>
<g id="Mug">
</g>
<g id="Refresh">
</g>
<g id="Login">
</g>
<g id="Logout">
</g>
<g id="Flowchart">
</g>
<g id="Pin_1">
</g>
<g id="Pin_2">
</g>
<g id="User_1">
</g>
<g id="User_2">
</g>
<g id="Users">
</g>
<g id="Adjustments">
</g>
<g id="Type">
</g>
<g id="Format_Size">
</g>
<g id="Menu_1">
</g>
<g id="Other">
</g>
<g id="Flash">
</g>
<g id="No_Flash">
</g>
<g id="Switch_Button_1">
</g>
<g id="Switch_Button_2">
</g>
<g id="Cut">
</g>
<g id="Crop">
</g>
<g id="Sun">
</g>
<g id="USB">
</g>
<g id="Pie_Chart_1">
</g>
<g id="Pie_Chart_2">
</g>
<g id="Line_Chart">
</g>
<g id="Bar_Chart">
</g>
<g id="Target">
</g>
<g id="Flashlight">
</g>
<g id="USB_Device">
</g>
<g id="Eject">
</g>
<g id="Lightbulb">
</g>
<g id="Information">
</g>
<g id="Deactivate_Protection">
</g>
<g id="Active_Protection">
</g>
<g id="Bug">
</g>
<g id="Protection">
</g>
<g id="Phone">
</g>
<g id="List">
</g>
<g id="Plugin_1">
</g>
<g id="Bookmarrk">
</g>
<g id="Handshake">
</g>
<g id="Minimize">
</g>
<g id="Maximize">
</g>
<g id="Diamond">
</g>
<g id="Stop">
</g>
<g id="Shuffle">
</g>
<g id="Undo">
</g>
<g id="Upgrade">
</g>
<g id="Coding">
</g>
<g id="Syncronizaion">
</g>
<g id="Radio">
</g>
<g id="Presentation">
</g>
<g id="Door">
</g>
<g id="Thumbs_Up">
</g>
<g id="Thumbs_Down">
</g>
<g id="Keyboard">
</g>
<g id="_x33_D_Cube">
</g>
<g id="Signal">
</g>
<g id="Dice">
</g>
<g id="Upload">
</g>
<g id="Download">
</g>
<g id="Plugin_2">
</g>
<g id="Shopping_Bag">
</g>
<g id="Lifebelt">
</g>
<g id="Glasses">
</g>
<g id="Parabolic_Antenna">
</g>
<g id="Loudspeaker">
</g>
<g id="Play">
</g>
<g id="Pause">
</g>
<g id="Signpost">
</g>
<g id="Bluetooth">
</g>
<g id="Present">
</g>
<g id="Ruler">
</g>
<g id="Connection">
</g>
<g id="Money">
</g>
<g id="Paper_Plane">
</g>
<g id="Wallet_2">
</g>
<desc>
	Appareil photo;Camera;vidéo;video;blockbuster;blockbuster;film;film;cinématique;cinematic;photographe;photographer;aperçu;preview;enregistreur;recorder;dépistage;screening;clip;clip;pixel;pixel;caméscope;camcorder;écran;screen;studio;studio;cliquez;click;lecture;playback;bande;tape;agrandisseur;enlarger;daguerréotype;daguerreotype;photographie;photograph;microphone;microphone;bouton;button;film;movie;trépied;tripod;audio;audio;projecteur;projector;théâtral;theatrical;photographie;photography;flick;flick;théâtre;theater;cameraman;cameraman;De base;Basic;Carte de crédit;Credit Card;Billet de banque;Banknote;Portefeuille;Wallet;Boussole;Compass;Photo;Photo;Image;Picture;Caméra;Camera;Pas d&amp;#39;appareil photo;No Camera;l&amp;#39;audio;Audio;Pas de microphone;No Microphone;Panier;Shopping Cart;Ajouter le panier;Add Shopping Cart;Supprimer le panier;Remove Shopping Cart;Panier;Shopping Basket;Jing-Jang;Jing-Jang;Feuille;Leaf;Verre;Glass;tasse;Cup;Agresser;Mug;Rafraîchir;Refresh;S&amp;#39;identifier;Login;Se déconnecter;Logout;Organigramme;Flowchart;Épingle;Pin;Utilisateur;User;Utilisateurs;Users;Ajustements;Adjustments;Type;Type;Taille du format;Format Size;Menu;Menu;Autre;Other;Éclat;Flash;Pas de flash;No Flash;Le bouton de l&amp;#39;interrupteur;Switch Button;Couper;Cut;Surgir;Crop;Soleil;Sun;USB;USB;Diagramme circulaire;Pie Chart;Graphique en ligne;Line Chart;Diagramme à bandes;Bar Chart;Cible;Target;Lampe de poche;Flashlight;Périphérique USB;USB Device;Éjecter;Eject;Ampoule;Lightbulb;Information;Information;Désactiver la protection;Deactivate Protection;Protection active;Active Protection;Punaise;Bug;protection;Protection;Téléphone;Phone;liste;List;Brancher;Plugin;Bookmarrk;Bookmarrk;Poignée de main;Handshake;Minimiser;Minimize;Maximiser;Maximize;diamant;Diamond;Arrêtez;Stop;Mélanger;Shuffle;annuler;Undo;Améliorer;Upgrade;Codage;Coding;Syncronisation;Syncronizaion;Radio;Radio;Présentation;Presentation;Porte;Door;Pouces vers le haut;Thumbs Up;Pouces vers le bas;Thumbs Down;Clavier;Keyboard;Cube x33 D; x33 D Cube;Signal;Signal;Dé;Dice;Télécharger;Upload;Télécharger;Download;Sac de courses;Shopping Bag;Ceinture de sauvetage;Lifebelt;Des lunettes;Glasses;Antenne parabolique;Parabolic Antenna;Haut-parleur;Loudspeaker;Jouer;Play;Pause;Pause;Poteau indicateur;Signpost;Bluetooth;Bluetooth;Présent;Present;Règle;Ruler;Lien;Connection;Argent;Money;Avion en papier;Paper Plane;Caméra 1;Camera 1
	</desc>
<rect fill-opacity="0" width="512" height="512"/>
</svg>
