<?xml version="1.0" encoding="utf-8"?>
<!-- Generator: Adobe Illustrator 15.0.0, SVG Export Plug-In . SVG Version: 6.00 Build 0)  -->
<!DOCTYPE svg PUBLIC "-//W3C//DTD SVG 1.1//EN" "http://www.w3.org/Graphics/SVG/1.1/DTD/svg11.dtd">
<svg xmlns="http://www.w3.org/2000/svg" xmlns:xlink="http://www.w3.org/1999/xlink" version="1.1" id="Calque_1" x="0px" y="0px" width="48" height="48" viewBox="0 0 512 512" enable-background="new 0 0 512 512" xml:space="preserve">
<g>
	<path fill="#4785BA" d="M243.943,0.3c54.117-2.65,109.027,12.311,154.154,42.706c50.393,33.478,88.562,85.577,104.612,144.374   c13.713,49.446,12.248,103.064-4.414,151.566c-20.102,59.373-62.827,110.361-117.208,140.57   c-46.529,26.287-101.215,36.787-154.092,30.891c-57.394-6.311-112.528-32.863-153.055-74.457   C30.403,392.584,3.69,332.533,0.477,270.857c-3.622-58.179,13.509-117.388,47.688-164.389C92.964,43.437,167.202,3.279,243.943,0.3   z"/>
</g>
</svg>
