<?xml version="1.0" encoding="utf-8"?>
<!-- Generator: Adobe Illustrator 24.3.0, SVG Export Plug-In . SVG Version: 6.00 Build 0)  -->
<svg xmlns="http://www.w3.org/2000/svg" xmlns:xlink="http://www.w3.org/1999/xlink" version="1.1" id="Layer_1" x="0px" y="0px" viewBox="0 0 512 512" enable-background="new 0 0 512 512" xml:space="preserve" width="80" height="80">
<g>
	<circle cx="256" cy="458.7" r="21.3"/>
	<path d="M394.7,42.7H117.3c-5.9,0-10.7,4.8-10.7,10.7V416c0,5.9,4.8,10.7,10.7,10.7h277.3c5.9,0,10.7-4.8,10.7-10.7V53.3   C405.3,47.4,400.6,42.7,394.7,42.7z M384,405.3H128V64h256V405.3z"/>
	<path d="M394.7,0H117.3C87.9,0,64,23.9,64,53.3v405.3c0,29.4,23.9,53.3,53.3,53.3h277.3c29.4,0,53.3-23.9,53.3-53.3V53.3   C448,23.9,424.1,0,394.7,0z M426.7,458.7c0,17.6-14.4,32-32,32H117.3c-17.6,0-32-14.4-32-32V53.3c0-17.6,14.4-32,32-32h277.3   c17.6,0,32,14.4,32,32v405.4H426.7z"/>
</g>
<desc>
	Tablette;Tablet;pilule;pill;capsule;capsule;aspirine;aspirin;prescription;prescription;surdosage;overdose;médicaments;medication;pharmacologie;pharmacology;apothicaire;apothecary;à base de plantes;herbal;relaxant;relaxant;interniste;internist;dosage;dosage;analgésique;painkiller;prescrire;prescribe;pharmacie;drugstore;nostrum;nostrum;pharmacie;pharmaceutics;pharmacien;pharmacist;pharmacopée;pharmacopoeia;médecin;physician;oto-rhino-laryngologie;otorhinolaryngology;soins de santé;healthcare;pédiatre;pediatrician;inoculer;inoculate;biofeedback;biofeedback;analgésique;analgesic;pharmaceutique;pharmaceutical;oto-rhino-laryngologie;otolaryngology;gériatrie;geriatrics;chimiste;chemist;Intelligent;Smart;Dispositifs;Devices
	</desc>
<rect fill-opacity="0" width="512" height="512"/>
</svg>
